<svg id="Layer_1" data-name="Layer 1" xmlns="http://www.w3.org/2000/svg" viewBox="0 0 240 324"><defs><style>.cls-1{fill:#ccc;}.cls-2{fill:#f04e23;}.cls-3{fill:red;}</style></defs><path class="cls-1" d="M168.2,92.34l55.56-65.46S228.13,33.64,220,48s-25.53,30.08-25.53,30.08l-3.52-3-18,21.23Z"/><path class="cls-2" d="M105.52,30.81A23.82,23.82,0,1,1,81.71,7a23.82,23.82,0,0,1,23.81,23.81Z"/><path class="cls-2" d="M83.34,221.61h-7v77.45a11.64,11.64,0,0,1-10.52,12.67,12,12,0,0,1-2.68-.06,11.79,11.79,0,0,1-13.52-9.77,11.46,11.46,0,0,1-.13-2.62V221.61H27.63L47.28,100.92s0-4.75-3-4.75-2.3,3.26-2.3,3.26L29.11,174.21s-2.45,10.83-12.46,8.6A9.49,9.49,0,0,1,9,171.76a8.86,8.86,0,0,1,.21-.89S21.54,103.51,25.1,86.08c4.53-22.26,21.15-22.26,21.15-22.26h73s16.62,0,21.14,22.26c3.57,17.36,7.88,42.12,7.88,42.12a9.86,9.86,0,0,1-6.74,12.22c-.22.07-.45.12-.68.17a10.45,10.45,0,0,1-12.44-8l0-.08-4.84-32.19s.75-2-2.29-2-3,2.22-3,2.22l19.66,120.78"/><path class="cls-2" d="M132.41,122.34c11.5-13.48,30.45-34.44,30.45-34.44a9.86,9.86,0,0,1,13.78-2.19c.18.13.37.28.55.43a10.45,10.45,0,0,1,1.34,14.73l-.06.07-32.19,35.95"/><path class="cls-3" d="M225.39,41s-10.38,21,0,21S225.39,41,225.39,41Z"/><path class="cls-3" d="M220.92,66.13s-7.78,15.75,0,15.75S220.92,66.13,220.92,66.13Z"/><path class="cls-3" d="M227.92,78.13s-7.78,15.75,0,15.75S227.92,78.13,227.92,78.13Z"/><path class="cls-2" d="M117.56,219.61v79.45A11.64,11.64,0,0,1,107,311.73a11.45,11.45,0,0,1-2.68-.06,11.8,11.8,0,0,1-13.53-9.77,11.46,11.46,0,0,1-.12-2.62V219.61"/></svg>